<mxfile host="app.diagrams.net" modified="2022-05-07T02:47:14.248Z" agent="5.0 (Windows NT 10.0; Win64; x64) AppleWebKit/537.36 (KHTML, like Gecko) Chrome/101.0.4951.54 Safari/537.36" etag="h59qSrTl5AuzPXkTLEsM" version="18.0.1" type="github">
  <diagram id="C5RBs43oDa-KdzZeNtuy" name="Page-1">
    <mxGraphModel dx="1718" dy="628" grid="1" gridSize="10" guides="1" tooltips="1" connect="1" arrows="1" fold="1" page="1" pageScale="1" pageWidth="4000" pageHeight="3000" math="0" shadow="0">
      <root>
        <mxCell id="WIyWlLk6GJQsqaUBKTNV-0" />
        <mxCell id="WIyWlLk6GJQsqaUBKTNV-1" parent="WIyWlLk6GJQsqaUBKTNV-0" />
        <mxCell id="DC-7fMDGKw9MtQms55Px-68" style="edgeStyle=orthogonalEdgeStyle;rounded=0;orthogonalLoop=1;jettySize=auto;html=1;exitX=0.5;exitY=0;exitDx=0;exitDy=0;startArrow=none;startFill=0;endArrow=block;endFill=0;startSize=6;endSize=6;" parent="WIyWlLk6GJQsqaUBKTNV-1" source="DC-7fMDGKw9MtQms55Px-56" target="DC-7fMDGKw9MtQms55Px-24" edge="1">
          <mxGeometry relative="1" as="geometry">
            <mxPoint x="1750" y="1230" as="targetPoint" />
            <Array as="points">
              <mxPoint x="1632" y="1380" />
              <mxPoint x="1690" y="1380" />
              <mxPoint x="1690" y="1270" />
              <mxPoint x="1750" y="1270" />
            </Array>
          </mxGeometry>
        </mxCell>
        <mxCell id="DC-7fMDGKw9MtQms55Px-2" value="AuditingEntity" style="swimlane;fontStyle=2;childLayout=stackLayout;horizontal=1;startSize=26;fillColor=#fff2cc;horizontalStack=0;resizeParent=1;resizeParentMax=0;resizeLast=0;collapsible=1;marginBottom=0;strokeColor=#d6b656;" parent="WIyWlLk6GJQsqaUBKTNV-1" vertex="1">
          <mxGeometry x="1606" y="960" width="300" height="156" as="geometry" />
        </mxCell>
        <mxCell id="DC-7fMDGKw9MtQms55Px-18" value="- lastModifer: String    最后修改者（用户名）" style="text;align=left;verticalAlign=top;spacingLeft=4;spacingRight=4;overflow=hidden;rotatable=0;points=[[0,0.5],[1,0.5]];portConstraint=eastwest;rounded=0;shadow=0;html=0;" parent="DC-7fMDGKw9MtQms55Px-2" vertex="1">
          <mxGeometry y="26" width="300" height="26" as="geometry" />
        </mxCell>
        <mxCell id="DC-7fMDGKw9MtQms55Px-17" value="- lastModifiedTime: ZonedDateTime    最后修改时间" style="text;align=left;verticalAlign=top;spacingLeft=4;spacingRight=4;overflow=hidden;rotatable=0;points=[[0,0.5],[1,0.5]];portConstraint=eastwest;rounded=0;shadow=0;html=0;" parent="DC-7fMDGKw9MtQms55Px-2" vertex="1">
          <mxGeometry y="52" width="300" height="26" as="geometry" />
        </mxCell>
        <mxCell id="DC-7fMDGKw9MtQms55Px-16" value="- creator: String    创建者（用户名）" style="text;align=left;verticalAlign=top;spacingLeft=4;spacingRight=4;overflow=hidden;rotatable=0;points=[[0,0.5],[1,0.5]];portConstraint=eastwest;rounded=0;shadow=0;html=0;" parent="DC-7fMDGKw9MtQms55Px-2" vertex="1">
          <mxGeometry y="78" width="300" height="26" as="geometry" />
        </mxCell>
        <mxCell id="DC-7fMDGKw9MtQms55Px-15" value="- createdTime: ZonedDateTime    创建时间" style="text;align=left;verticalAlign=top;spacingLeft=4;spacingRight=4;overflow=hidden;rotatable=0;points=[[0,0.5],[1,0.5]];portConstraint=eastwest;rounded=0;shadow=0;html=0;" parent="DC-7fMDGKw9MtQms55Px-2" vertex="1">
          <mxGeometry y="104" width="300" height="26" as="geometry" />
        </mxCell>
        <mxCell id="DC-7fMDGKw9MtQms55Px-14" value="- version: Long    版本" style="text;align=left;verticalAlign=top;spacingLeft=4;spacingRight=4;overflow=hidden;rotatable=0;points=[[0,0.5],[1,0.5]];portConstraint=eastwest;" parent="DC-7fMDGKw9MtQms55Px-2" vertex="1">
          <mxGeometry y="130" width="300" height="26" as="geometry" />
        </mxCell>
        <mxCell id="DC-7fMDGKw9MtQms55Px-19" value="ID" style="swimlane;fontStyle=0;childLayout=stackLayout;horizontal=1;startSize=26;fillColor=#dae8fc;horizontalStack=0;resizeParent=1;resizeParentMax=0;resizeLast=0;collapsible=1;marginBottom=0;strokeColor=#6c8ebf;" parent="WIyWlLk6GJQsqaUBKTNV-1" vertex="1">
          <mxGeometry x="1920" y="1167" width="140" height="52" as="geometry">
            <mxRectangle x="1180" y="750" width="70" height="26" as="alternateBounds" />
          </mxGeometry>
        </mxCell>
        <mxCell id="DC-7fMDGKw9MtQms55Px-20" value="- value: Long    数据库ID" style="text;strokeColor=none;fillColor=none;align=left;verticalAlign=top;spacingLeft=4;spacingRight=4;overflow=hidden;rotatable=0;points=[[0,0.5],[1,0.5]];portConstraint=eastwest;" parent="DC-7fMDGKw9MtQms55Px-19" vertex="1">
          <mxGeometry y="26" width="140" height="26" as="geometry" />
        </mxCell>
        <mxCell id="DC-7fMDGKw9MtQms55Px-23" value="BaseEntity" style="swimlane;fontStyle=2;childLayout=stackLayout;horizontal=1;startSize=26;fillColor=#fff2cc;horizontalStack=0;resizeParent=1;resizeParentMax=0;resizeLast=0;collapsible=1;marginBottom=0;strokeColor=#d6b656;" parent="WIyWlLk6GJQsqaUBKTNV-1" vertex="1">
          <mxGeometry x="1695" y="1167" width="110" height="52" as="geometry" />
        </mxCell>
        <mxCell id="DC-7fMDGKw9MtQms55Px-24" value="- id: ID    实体ID" style="text;strokeColor=none;fillColor=none;align=left;verticalAlign=top;spacingLeft=4;spacingRight=4;overflow=hidden;rotatable=0;points=[[0,0.5],[1,0.5]];portConstraint=eastwest;" parent="DC-7fMDGKw9MtQms55Px-23" vertex="1">
          <mxGeometry y="26" width="110" height="26" as="geometry" />
        </mxCell>
        <mxCell id="DC-7fMDGKw9MtQms55Px-55" style="edgeStyle=orthogonalEdgeStyle;rounded=0;orthogonalLoop=1;jettySize=auto;html=1;exitX=0.5;exitY=0;exitDx=0;exitDy=0;entryX=0.5;entryY=1;entryDx=0;entryDy=0;entryPerimeter=0;startArrow=none;startFill=0;endArrow=block;endFill=0;" parent="WIyWlLk6GJQsqaUBKTNV-1" source="DC-7fMDGKw9MtQms55Px-32" target="DC-7fMDGKw9MtQms55Px-24" edge="1">
          <mxGeometry relative="1" as="geometry">
            <Array as="points">
              <mxPoint x="1100" y="1270" />
              <mxPoint x="1750" y="1270" />
            </Array>
          </mxGeometry>
        </mxCell>
        <mxCell id="DC-7fMDGKw9MtQms55Px-32" value="Project" style="swimlane;fontStyle=0;childLayout=stackLayout;horizontal=1;startSize=26;fillColor=#e1d5e7;horizontalStack=0;resizeParent=1;resizeParentMax=0;resizeLast=0;collapsible=1;marginBottom=0;strokeColor=#9673a6;" parent="WIyWlLk6GJQsqaUBKTNV-1" vertex="1">
          <mxGeometry x="940" y="1300" width="320" height="582" as="geometry" />
        </mxCell>
        <mxCell id="DC-7fMDGKw9MtQms55Px-33" value="- name: String    项目名称" style="text;strokeColor=none;fillColor=none;align=left;verticalAlign=top;spacingLeft=4;spacingRight=4;overflow=hidden;rotatable=0;points=[[0,0.5],[1,0.5]];portConstraint=eastwest;" parent="DC-7fMDGKw9MtQms55Px-32" vertex="1">
          <mxGeometry y="26" width="320" height="24" as="geometry" />
        </mxCell>
        <mxCell id="DC-7fMDGKw9MtQms55Px-34" value="- description: String    描述" style="text;strokeColor=none;fillColor=none;align=left;verticalAlign=top;spacingLeft=4;spacingRight=4;overflow=hidden;rotatable=0;points=[[0,0.5],[1,0.5]];portConstraint=eastwest;" parent="DC-7fMDGKw9MtQms55Px-32" vertex="1">
          <mxGeometry y="50" width="320" height="26" as="geometry" />
        </mxCell>
        <mxCell id="DC-7fMDGKw9MtQms55Px-47" value="- content: String    项目内容" style="text;strokeColor=none;fillColor=none;align=left;verticalAlign=top;spacingLeft=4;spacingRight=4;overflow=hidden;rotatable=0;points=[[0,0.5],[1,0.5]];portConstraint=eastwest;" parent="DC-7fMDGKw9MtQms55Px-32" vertex="1">
          <mxGeometry y="76" width="320" height="26" as="geometry" />
        </mxCell>
        <mxCell id="DC-7fMDGKw9MtQms55Px-35" value="- status: ProjectStatus    状态" style="text;strokeColor=none;fillColor=none;align=left;verticalAlign=top;spacingLeft=4;spacingRight=4;overflow=hidden;rotatable=0;points=[[0,0.5],[1,0.5]];portConstraint=eastwest;" parent="DC-7fMDGKw9MtQms55Px-32" vertex="1">
          <mxGeometry y="102" width="320" height="24" as="geometry" />
        </mxCell>
        <mxCell id="DC-7fMDGKw9MtQms55Px-36" value="- type: ProjectType    项目类型" style="text;strokeColor=none;fillColor=none;align=left;verticalAlign=top;spacingLeft=4;spacingRight=4;overflow=hidden;rotatable=0;points=[[0,0.5],[1,0.5]];portConstraint=eastwest;" parent="DC-7fMDGKw9MtQms55Px-32" vertex="1">
          <mxGeometry y="126" width="320" height="26" as="geometry" />
        </mxCell>
        <mxCell id="DC-7fMDGKw9MtQms55Px-46" value="- category: ProjectCategory    项目类别" style="text;strokeColor=none;fillColor=none;align=left;verticalAlign=top;spacingLeft=4;spacingRight=4;overflow=hidden;rotatable=0;points=[[0,0.5],[1,0.5]];portConstraint=eastwest;" parent="DC-7fMDGKw9MtQms55Px-32" vertex="1">
          <mxGeometry y="152" width="320" height="26" as="geometry" />
        </mxCell>
        <mxCell id="DC-7fMDGKw9MtQms55Px-54" value="- currency: Currency    币种" style="text;strokeColor=none;fillColor=none;align=left;verticalAlign=top;spacingLeft=4;spacingRight=4;overflow=hidden;rotatable=0;points=[[0,0.5],[1,0.5]];portConstraint=eastwest;" parent="DC-7fMDGKw9MtQms55Px-32" vertex="1">
          <mxGeometry y="178" width="320" height="26" as="geometry" />
        </mxCell>
        <mxCell id="DC-7fMDGKw9MtQms55Px-40" value="- urgency: Urgency    紧急程度" style="text;strokeColor=none;fillColor=none;align=left;verticalAlign=top;spacingLeft=4;spacingRight=4;overflow=hidden;rotatable=0;points=[[0,0.5],[1,0.5]];portConstraint=eastwest;" parent="DC-7fMDGKw9MtQms55Px-32" vertex="1">
          <mxGeometry y="204" width="320" height="26" as="geometry" />
        </mxCell>
        <mxCell id="DC-7fMDGKw9MtQms55Px-39" value="- priority: Priority    优先级" style="text;strokeColor=none;fillColor=none;align=left;verticalAlign=top;spacingLeft=4;spacingRight=4;overflow=hidden;rotatable=0;points=[[0,0.5],[1,0.5]];portConstraint=eastwest;" parent="DC-7fMDGKw9MtQms55Px-32" vertex="1">
          <mxGeometry y="230" width="320" height="26" as="geometry" />
        </mxCell>
        <mxCell id="DC-7fMDGKw9MtQms55Px-38" value="- securityLevel: SecurityLevel    安全级别" style="text;strokeColor=none;fillColor=none;align=left;verticalAlign=top;spacingLeft=4;spacingRight=4;overflow=hidden;rotatable=0;points=[[0,0.5],[1,0.5]];portConstraint=eastwest;" parent="DC-7fMDGKw9MtQms55Px-32" vertex="1">
          <mxGeometry y="256" width="320" height="26" as="geometry" />
        </mxCell>
        <mxCell id="DC-7fMDGKw9MtQms55Px-52" value="- calendar: Calendar    日历" style="text;strokeColor=none;fillColor=none;align=left;verticalAlign=top;spacingLeft=4;spacingRight=4;overflow=hidden;rotatable=0;points=[[0,0.5],[1,0.5]];portConstraint=eastwest;" parent="DC-7fMDGKw9MtQms55Px-32" vertex="1">
          <mxGeometry y="282" width="320" height="24" as="geometry" />
        </mxCell>
        <mxCell id="DC-7fMDGKw9MtQms55Px-44" value="- plannedBudget: BigDecimal    项目预算" style="text;strokeColor=none;fillColor=none;align=left;verticalAlign=top;spacingLeft=4;spacingRight=4;overflow=hidden;rotatable=0;points=[[0,0.5],[1,0.5]];portConstraint=eastwest;" parent="DC-7fMDGKw9MtQms55Px-32" vertex="1">
          <mxGeometry y="306" width="320" height="26" as="geometry" />
        </mxCell>
        <mxCell id="DC-7fMDGKw9MtQms55Px-43" value="- actualBudget: BigDecimal    实际费用" style="text;strokeColor=none;fillColor=none;align=left;verticalAlign=top;spacingLeft=4;spacingRight=4;overflow=hidden;rotatable=0;points=[[0,0.5],[1,0.5]];portConstraint=eastwest;" parent="DC-7fMDGKw9MtQms55Px-32" vertex="1">
          <mxGeometry y="332" width="320" height="26" as="geometry" />
        </mxCell>
        <mxCell id="DC-7fMDGKw9MtQms55Px-42" value="- plannedStartTime: ZonedDateTime    计划开始时间" style="text;strokeColor=none;fillColor=none;align=left;verticalAlign=top;spacingLeft=4;spacingRight=4;overflow=hidden;rotatable=0;points=[[0,0.5],[1,0.5]];portConstraint=eastwest;" parent="DC-7fMDGKw9MtQms55Px-32" vertex="1">
          <mxGeometry y="358" width="320" height="26" as="geometry" />
        </mxCell>
        <mxCell id="DC-7fMDGKw9MtQms55Px-41" value="- plannedFinishTime: ZonedDateTime    计划结束时间" style="text;strokeColor=none;fillColor=none;align=left;verticalAlign=top;spacingLeft=4;spacingRight=4;overflow=hidden;rotatable=0;points=[[0,0.5],[1,0.5]];portConstraint=eastwest;" parent="DC-7fMDGKw9MtQms55Px-32" vertex="1">
          <mxGeometry y="384" width="320" height="24" as="geometry" />
        </mxCell>
        <mxCell id="DC-7fMDGKw9MtQms55Px-37" value="- actualStartTime: ZonedDateTime    实际开始时间" style="text;strokeColor=none;fillColor=none;align=left;verticalAlign=top;spacingLeft=4;spacingRight=4;overflow=hidden;rotatable=0;points=[[0,0.5],[1,0.5]];portConstraint=eastwest;" parent="DC-7fMDGKw9MtQms55Px-32" vertex="1">
          <mxGeometry y="408" width="320" height="24" as="geometry" />
        </mxCell>
        <mxCell id="DC-7fMDGKw9MtQms55Px-45" value="- actualFinishTime: ZonedDateTime    实际结束时间" style="text;strokeColor=none;fillColor=none;align=left;verticalAlign=top;spacingLeft=4;spacingRight=4;overflow=hidden;rotatable=0;points=[[0,0.5],[1,0.5]];portConstraint=eastwest;" parent="DC-7fMDGKw9MtQms55Px-32" vertex="1">
          <mxGeometry y="432" width="320" height="26" as="geometry" />
        </mxCell>
        <mxCell id="DC-7fMDGKw9MtQms55Px-51" value="- actualStartTime: ZonedDateTime    实际开始时间" style="text;strokeColor=none;fillColor=none;align=left;verticalAlign=top;spacingLeft=4;spacingRight=4;overflow=hidden;rotatable=0;points=[[0,0.5],[1,0.5]];portConstraint=eastwest;" parent="DC-7fMDGKw9MtQms55Px-32" vertex="1">
          <mxGeometry y="458" width="320" height="24" as="geometry" />
        </mxCell>
        <mxCell id="DC-7fMDGKw9MtQms55Px-50" value="- plannedDuration: Integer    计划工期" style="text;strokeColor=none;fillColor=none;align=left;verticalAlign=top;spacingLeft=4;spacingRight=4;overflow=hidden;rotatable=0;points=[[0,0.5],[1,0.5]];portConstraint=eastwest;" parent="DC-7fMDGKw9MtQms55Px-32" vertex="1">
          <mxGeometry y="482" width="320" height="24" as="geometry" />
        </mxCell>
        <mxCell id="DC-7fMDGKw9MtQms55Px-49" value="- actualDuration: Integer    实际工期" style="text;strokeColor=none;fillColor=none;align=left;verticalAlign=top;spacingLeft=4;spacingRight=4;overflow=hidden;rotatable=0;points=[[0,0.5],[1,0.5]];portConstraint=eastwest;" parent="DC-7fMDGKw9MtQms55Px-32" vertex="1">
          <mxGeometry y="506" width="320" height="26" as="geometry" />
        </mxCell>
        <mxCell id="DC-7fMDGKw9MtQms55Px-48" value="- actualProgress: Double    实际进度" style="text;strokeColor=none;fillColor=none;align=left;verticalAlign=top;spacingLeft=4;spacingRight=4;overflow=hidden;rotatable=0;points=[[0,0.5],[1,0.5]];portConstraint=eastwest;" parent="DC-7fMDGKw9MtQms55Px-32" vertex="1">
          <mxGeometry y="532" width="320" height="26" as="geometry" />
        </mxCell>
        <mxCell id="DC-7fMDGKw9MtQms55Px-53" value="- extProps: JSONObject    扩展属性" style="text;strokeColor=none;fillColor=none;align=left;verticalAlign=top;spacingLeft=4;spacingRight=4;overflow=hidden;rotatable=0;points=[[0,0.5],[1,0.5]];portConstraint=eastwest;" parent="DC-7fMDGKw9MtQms55Px-32" vertex="1">
          <mxGeometry y="558" width="320" height="24" as="geometry" />
        </mxCell>
        <mxCell id="DC-7fMDGKw9MtQms55Px-56" value="Currency" style="swimlane;fontStyle=0;childLayout=stackLayout;horizontal=1;startSize=26;fillColor=#d5e8d4;horizontalStack=0;resizeParent=1;resizeParentMax=0;resizeLast=0;collapsible=1;marginBottom=0;strokeColor=#82b366;" parent="WIyWlLk6GJQsqaUBKTNV-1" vertex="1">
          <mxGeometry x="1552" y="1428" width="160" height="100" as="geometry" />
        </mxCell>
        <mxCell id="DC-7fMDGKw9MtQms55Px-57" value="- name: String    货币名称" style="text;strokeColor=none;fillColor=none;align=left;verticalAlign=top;spacingLeft=4;spacingRight=4;overflow=hidden;rotatable=0;points=[[0,0.5],[1,0.5]];portConstraint=eastwest;" parent="DC-7fMDGKw9MtQms55Px-56" vertex="1">
          <mxGeometry y="26" width="160" height="24" as="geometry" />
        </mxCell>
        <mxCell id="DC-7fMDGKw9MtQms55Px-58" value="- code: String    货币代码" style="text;strokeColor=none;fillColor=none;align=left;verticalAlign=top;spacingLeft=4;spacingRight=4;overflow=hidden;rotatable=0;points=[[0,0.5],[1,0.5]];portConstraint=eastwest;" parent="DC-7fMDGKw9MtQms55Px-56" vertex="1">
          <mxGeometry y="50" width="160" height="26" as="geometry" />
        </mxCell>
        <mxCell id="DC-7fMDGKw9MtQms55Px-59" value="- symbol: String    货币符号" style="text;strokeColor=none;fillColor=none;align=left;verticalAlign=top;spacingLeft=4;spacingRight=4;overflow=hidden;rotatable=0;points=[[0,0.5],[1,0.5]];portConstraint=eastwest;" parent="DC-7fMDGKw9MtQms55Px-56" vertex="1">
          <mxGeometry y="76" width="160" height="24" as="geometry" />
        </mxCell>
        <mxCell id="DC-7fMDGKw9MtQms55Px-61" value="Abstract Class" style="rounded=1;whiteSpace=wrap;html=1;fillColor=#fff2cc;strokeColor=#d6b656;" parent="WIyWlLk6GJQsqaUBKTNV-1" vertex="1">
          <mxGeometry x="300" y="190" width="100" height="30" as="geometry" />
        </mxCell>
        <mxCell id="DC-7fMDGKw9MtQms55Px-63" value="Entity" style="rounded=1;whiteSpace=wrap;html=1;fillColor=#d5e8d4;strokeColor=#82b366;" parent="WIyWlLk6GJQsqaUBKTNV-1" vertex="1">
          <mxGeometry x="420" y="190" width="100" height="30" as="geometry" />
        </mxCell>
        <mxCell id="DC-7fMDGKw9MtQms55Px-64" value="Aggragate" style="rounded=1;whiteSpace=wrap;html=1;fillColor=#e1d5e7;strokeColor=#9673a6;" parent="WIyWlLk6GJQsqaUBKTNV-1" vertex="1">
          <mxGeometry x="540" y="190" width="100" height="30" as="geometry" />
        </mxCell>
        <mxCell id="DC-7fMDGKw9MtQms55Px-65" value="DP" style="rounded=1;whiteSpace=wrap;html=1;fillColor=#dae8fc;strokeColor=#6c8ebf;" parent="WIyWlLk6GJQsqaUBKTNV-1" vertex="1">
          <mxGeometry x="660" y="190" width="100" height="30" as="geometry" />
        </mxCell>
        <mxCell id="DC-7fMDGKw9MtQms55Px-66" style="edgeStyle=orthogonalEdgeStyle;rounded=0;orthogonalLoop=1;jettySize=auto;html=1;exitX=0;exitY=0.5;exitDx=0;exitDy=0;entryX=1;entryY=0.5;entryDx=0;entryDy=0;startArrow=none;startFill=0;endArrow=diamondThin;endFill=0;" parent="WIyWlLk6GJQsqaUBKTNV-1" source="DC-7fMDGKw9MtQms55Px-58" target="DC-7fMDGKw9MtQms55Px-54" edge="1">
          <mxGeometry relative="1" as="geometry" />
        </mxCell>
        <mxCell id="DC-7fMDGKw9MtQms55Px-67" style="rounded=0;orthogonalLoop=1;jettySize=auto;html=1;exitX=0.5;exitY=0;exitDx=0;exitDy=0;startArrow=none;startFill=0;endArrow=block;endFill=0;entryX=0.48;entryY=0.996;entryDx=0;entryDy=0;entryPerimeter=0;edgeStyle=orthogonalEdgeStyle;" parent="WIyWlLk6GJQsqaUBKTNV-1" source="DC-7fMDGKw9MtQms55Px-23" target="DC-7fMDGKw9MtQms55Px-14" edge="1">
          <mxGeometry relative="1" as="geometry">
            <mxPoint x="1400" y="1310" as="sourcePoint" />
            <mxPoint x="1750" y="1140" as="targetPoint" />
          </mxGeometry>
        </mxCell>
        <mxCell id="DC-7fMDGKw9MtQms55Px-74" style="edgeStyle=orthogonalEdgeStyle;rounded=0;orthogonalLoop=1;jettySize=auto;html=1;startArrow=none;startFill=0;endArrow=block;endFill=0;startSize=6;endSize=6;" parent="WIyWlLk6GJQsqaUBKTNV-1" source="DC-7fMDGKw9MtQms55Px-69" target="DC-7fMDGKw9MtQms55Px-23" edge="1">
          <mxGeometry relative="1" as="geometry">
            <mxPoint x="1750" y="1222" as="targetPoint" />
            <mxPoint x="1690" y="1552" as="sourcePoint" />
            <Array as="points">
              <mxPoint x="1632" y="1542" />
              <mxPoint x="1800" y="1542" />
              <mxPoint x="1800" y="1270" />
              <mxPoint x="1750" y="1270" />
            </Array>
          </mxGeometry>
        </mxCell>
        <mxCell id="DC-7fMDGKw9MtQms55Px-69" value="Urgency" style="swimlane;fontStyle=0;childLayout=stackLayout;horizontal=1;startSize=26;fillColor=#d5e8d4;horizontalStack=0;resizeParent=1;resizeParentMax=0;resizeLast=0;collapsible=1;marginBottom=0;strokeColor=#82b366;" parent="WIyWlLk6GJQsqaUBKTNV-1" vertex="1">
          <mxGeometry x="1552" y="1550" width="160" height="100" as="geometry" />
        </mxCell>
        <mxCell id="DC-7fMDGKw9MtQms55Px-70" value="- name: String    名称" style="text;strokeColor=none;fillColor=none;align=left;verticalAlign=top;spacingLeft=4;spacingRight=4;overflow=hidden;rotatable=0;points=[[0,0.5],[1,0.5]];portConstraint=eastwest;" parent="DC-7fMDGKw9MtQms55Px-69" vertex="1">
          <mxGeometry y="26" width="160" height="24" as="geometry" />
        </mxCell>
        <mxCell id="DC-7fMDGKw9MtQms55Px-71" value="- icon: String    图标地址" style="text;strokeColor=none;fillColor=none;align=left;verticalAlign=top;spacingLeft=4;spacingRight=4;overflow=hidden;rotatable=0;points=[[0,0.5],[1,0.5]];portConstraint=eastwest;" parent="DC-7fMDGKw9MtQms55Px-69" vertex="1">
          <mxGeometry y="50" width="160" height="26" as="geometry" />
        </mxCell>
        <mxCell id="DC-7fMDGKw9MtQms55Px-72" value="- sequence: Integer    序列" style="text;strokeColor=none;fillColor=none;align=left;verticalAlign=top;spacingLeft=4;spacingRight=4;overflow=hidden;rotatable=0;points=[[0,0.5],[1,0.5]];portConstraint=eastwest;" parent="DC-7fMDGKw9MtQms55Px-69" vertex="1">
          <mxGeometry y="76" width="160" height="24" as="geometry" />
        </mxCell>
        <mxCell id="DC-7fMDGKw9MtQms55Px-73" style="edgeStyle=orthogonalEdgeStyle;rounded=0;orthogonalLoop=1;jettySize=auto;html=1;exitX=0;exitY=0.5;exitDx=0;exitDy=0;entryX=1;entryY=0.5;entryDx=0;entryDy=0;startArrow=none;startFill=0;endArrow=diamondThin;endFill=0;startSize=6;endSize=6;" parent="WIyWlLk6GJQsqaUBKTNV-1" source="DC-7fMDGKw9MtQms55Px-71" target="DC-7fMDGKw9MtQms55Px-40" edge="1">
          <mxGeometry relative="1" as="geometry">
            <Array as="points">
              <mxPoint x="1490" y="1613" />
              <mxPoint x="1490" y="1517" />
            </Array>
          </mxGeometry>
        </mxCell>
        <mxCell id="DC-7fMDGKw9MtQms55Px-80" style="edgeStyle=orthogonalEdgeStyle;rounded=0;orthogonalLoop=1;jettySize=auto;html=1;exitX=0.5;exitY=0;exitDx=0;exitDy=0;startArrow=none;startFill=0;endArrow=block;endFill=0;startSize=6;endSize=6;" parent="WIyWlLk6GJQsqaUBKTNV-1" source="DC-7fMDGKw9MtQms55Px-75" target="DC-7fMDGKw9MtQms55Px-23" edge="1">
          <mxGeometry relative="1" as="geometry">
            <Array as="points">
              <mxPoint x="1632" y="1660" />
              <mxPoint x="1830" y="1660" />
              <mxPoint x="1830" y="1270" />
              <mxPoint x="1750" y="1270" />
            </Array>
          </mxGeometry>
        </mxCell>
        <mxCell id="DC-7fMDGKw9MtQms55Px-75" value="Priority" style="swimlane;fontStyle=0;childLayout=stackLayout;horizontal=1;startSize=26;fillColor=#d5e8d4;horizontalStack=0;resizeParent=1;resizeParentMax=0;resizeLast=0;collapsible=1;marginBottom=0;strokeColor=#82b366;" parent="WIyWlLk6GJQsqaUBKTNV-1" vertex="1">
          <mxGeometry x="1552" y="1670" width="160" height="100" as="geometry" />
        </mxCell>
        <mxCell id="DC-7fMDGKw9MtQms55Px-76" value="- name: String    名称" style="text;strokeColor=none;fillColor=none;align=left;verticalAlign=top;spacingLeft=4;spacingRight=4;overflow=hidden;rotatable=0;points=[[0,0.5],[1,0.5]];portConstraint=eastwest;" parent="DC-7fMDGKw9MtQms55Px-75" vertex="1">
          <mxGeometry y="26" width="160" height="24" as="geometry" />
        </mxCell>
        <mxCell id="DC-7fMDGKw9MtQms55Px-77" value="- icon: String    图标地址" style="text;strokeColor=none;fillColor=none;align=left;verticalAlign=top;spacingLeft=4;spacingRight=4;overflow=hidden;rotatable=0;points=[[0,0.5],[1,0.5]];portConstraint=eastwest;" parent="DC-7fMDGKw9MtQms55Px-75" vertex="1">
          <mxGeometry y="50" width="160" height="26" as="geometry" />
        </mxCell>
        <mxCell id="DC-7fMDGKw9MtQms55Px-78" value="- sequence: Integer    序列" style="text;strokeColor=none;fillColor=none;align=left;verticalAlign=top;spacingLeft=4;spacingRight=4;overflow=hidden;rotatable=0;points=[[0,0.5],[1,0.5]];portConstraint=eastwest;" parent="DC-7fMDGKw9MtQms55Px-75" vertex="1">
          <mxGeometry y="76" width="160" height="24" as="geometry" />
        </mxCell>
        <mxCell id="DC-7fMDGKw9MtQms55Px-79" style="edgeStyle=orthogonalEdgeStyle;rounded=0;orthogonalLoop=1;jettySize=auto;html=1;exitX=0;exitY=0.5;exitDx=0;exitDy=0;entryX=1;entryY=0.5;entryDx=0;entryDy=0;startArrow=none;startFill=0;endArrow=diamondThin;endFill=0;startSize=6;endSize=6;" parent="WIyWlLk6GJQsqaUBKTNV-1" source="DC-7fMDGKw9MtQms55Px-77" target="DC-7fMDGKw9MtQms55Px-39" edge="1">
          <mxGeometry relative="1" as="geometry">
            <Array as="points">
              <mxPoint x="1450" y="1733" />
              <mxPoint x="1450" y="1543" />
            </Array>
          </mxGeometry>
        </mxCell>
        <mxCell id="DC-7fMDGKw9MtQms55Px-86" style="edgeStyle=orthogonalEdgeStyle;rounded=0;orthogonalLoop=1;jettySize=auto;html=1;exitX=0.5;exitY=0;exitDx=0;exitDy=0;startArrow=none;startFill=0;endArrow=block;endFill=0;startSize=6;endSize=6;" parent="WIyWlLk6GJQsqaUBKTNV-1" source="DC-7fMDGKw9MtQms55Px-81" target="DC-7fMDGKw9MtQms55Px-23" edge="1">
          <mxGeometry relative="1" as="geometry">
            <Array as="points">
              <mxPoint x="1632" y="1780" />
              <mxPoint x="1880" y="1780" />
              <mxPoint x="1880" y="1270" />
              <mxPoint x="1750" y="1270" />
            </Array>
          </mxGeometry>
        </mxCell>
        <mxCell id="DC-7fMDGKw9MtQms55Px-81" value="Priority" style="swimlane;fontStyle=0;childLayout=stackLayout;horizontal=1;startSize=26;fillColor=#d5e8d4;horizontalStack=0;resizeParent=1;resizeParentMax=0;resizeLast=0;collapsible=1;marginBottom=0;strokeColor=#82b366;" parent="WIyWlLk6GJQsqaUBKTNV-1" vertex="1">
          <mxGeometry x="1552" y="1790" width="160" height="100" as="geometry" />
        </mxCell>
        <mxCell id="DC-7fMDGKw9MtQms55Px-82" value="- name: String    名称" style="text;strokeColor=none;fillColor=none;align=left;verticalAlign=top;spacingLeft=4;spacingRight=4;overflow=hidden;rotatable=0;points=[[0,0.5],[1,0.5]];portConstraint=eastwest;" parent="DC-7fMDGKw9MtQms55Px-81" vertex="1">
          <mxGeometry y="26" width="160" height="24" as="geometry" />
        </mxCell>
        <mxCell id="DC-7fMDGKw9MtQms55Px-83" value="- icon: String    图标地址" style="text;strokeColor=none;fillColor=none;align=left;verticalAlign=top;spacingLeft=4;spacingRight=4;overflow=hidden;rotatable=0;points=[[0,0.5],[1,0.5]];portConstraint=eastwest;" parent="DC-7fMDGKw9MtQms55Px-81" vertex="1">
          <mxGeometry y="50" width="160" height="26" as="geometry" />
        </mxCell>
        <mxCell id="DC-7fMDGKw9MtQms55Px-84" value="- sequence: Integer    序列" style="text;strokeColor=none;fillColor=none;align=left;verticalAlign=top;spacingLeft=4;spacingRight=4;overflow=hidden;rotatable=0;points=[[0,0.5],[1,0.5]];portConstraint=eastwest;" parent="DC-7fMDGKw9MtQms55Px-81" vertex="1">
          <mxGeometry y="76" width="160" height="24" as="geometry" />
        </mxCell>
        <mxCell id="DC-7fMDGKw9MtQms55Px-85" style="edgeStyle=orthogonalEdgeStyle;rounded=0;orthogonalLoop=1;jettySize=auto;html=1;exitX=0;exitY=0.5;exitDx=0;exitDy=0;entryX=1;entryY=0.5;entryDx=0;entryDy=0;startArrow=none;startFill=0;endArrow=diamondThin;endFill=0;startSize=6;endSize=6;" parent="WIyWlLk6GJQsqaUBKTNV-1" source="DC-7fMDGKw9MtQms55Px-83" target="DC-7fMDGKw9MtQms55Px-38" edge="1">
          <mxGeometry relative="1" as="geometry">
            <Array as="points">
              <mxPoint x="1410" y="1853" />
              <mxPoint x="1410" y="1569" />
            </Array>
          </mxGeometry>
        </mxCell>
        <mxCell id="DC-7fMDGKw9MtQms55Px-91" style="edgeStyle=orthogonalEdgeStyle;rounded=0;orthogonalLoop=1;jettySize=auto;html=1;exitX=0.5;exitY=0;exitDx=0;exitDy=0;startArrow=none;startFill=0;endArrow=block;endFill=0;startSize=6;endSize=6;" parent="WIyWlLk6GJQsqaUBKTNV-1" source="DC-7fMDGKw9MtQms55Px-87" target="DC-7fMDGKw9MtQms55Px-23" edge="1">
          <mxGeometry relative="1" as="geometry">
            <Array as="points">
              <mxPoint x="690" y="1270" />
              <mxPoint x="1750" y="1270" />
            </Array>
          </mxGeometry>
        </mxCell>
        <mxCell id="DC-7fMDGKw9MtQms55Px-87" value="Calendar" style="swimlane;fontStyle=0;childLayout=stackLayout;horizontal=1;startSize=26;fillColor=#d5e8d4;horizontalStack=0;resizeParent=1;resizeParentMax=0;resizeLast=0;collapsible=1;marginBottom=0;strokeColor=#82b366;" parent="WIyWlLk6GJQsqaUBKTNV-1" vertex="1">
          <mxGeometry x="535" y="1529" width="310" height="104" as="geometry" />
        </mxCell>
        <mxCell id="DC-7fMDGKw9MtQms55Px-88" value="- name: String    日历名称" style="text;strokeColor=none;fillColor=none;align=left;verticalAlign=top;spacingLeft=4;spacingRight=4;overflow=hidden;rotatable=0;points=[[0,0.5],[1,0.5]];portConstraint=eastwest;" parent="DC-7fMDGKw9MtQms55Px-87" vertex="1">
          <mxGeometry y="26" width="310" height="26" as="geometry" />
        </mxCell>
        <mxCell id="DC-7fMDGKw9MtQms55Px-89" value="- specialDates: List&lt;CalendarSpecialDate&gt;    特殊日期" style="text;strokeColor=none;fillColor=none;align=left;verticalAlign=top;spacingLeft=4;spacingRight=4;overflow=hidden;rotatable=0;points=[[0,0.5],[1,0.5]];portConstraint=eastwest;" parent="DC-7fMDGKw9MtQms55Px-87" vertex="1">
          <mxGeometry y="52" width="310" height="26" as="geometry" />
        </mxCell>
        <mxCell id="DC-7fMDGKw9MtQms55Px-90" value="- weeks: List&lt;CalendarWeek&gt;    工作周" style="text;strokeColor=none;fillColor=none;align=left;verticalAlign=top;spacingLeft=4;spacingRight=4;overflow=hidden;rotatable=0;points=[[0,0.5],[1,0.5]];portConstraint=eastwest;" parent="DC-7fMDGKw9MtQms55Px-87" vertex="1">
          <mxGeometry y="78" width="310" height="26" as="geometry" />
        </mxCell>
        <mxCell id="DC-7fMDGKw9MtQms55Px-92" style="edgeStyle=orthogonalEdgeStyle;rounded=0;orthogonalLoop=1;jettySize=auto;html=1;exitX=1;exitY=0.5;exitDx=0;exitDy=0;startArrow=open;startFill=0;endArrow=diamondThin;endFill=1;startSize=6;endSize=6;" parent="WIyWlLk6GJQsqaUBKTNV-1" source="DC-7fMDGKw9MtQms55Px-89" target="DC-7fMDGKw9MtQms55Px-52" edge="1">
          <mxGeometry relative="1" as="geometry" />
        </mxCell>
        <mxCell id="DC-7fMDGKw9MtQms55Px-99" style="edgeStyle=orthogonalEdgeStyle;rounded=0;orthogonalLoop=1;jettySize=auto;html=1;exitX=0.5;exitY=0;exitDx=0;exitDy=0;startArrow=none;startFill=0;endArrow=block;endFill=0;startSize=6;endSize=6;" parent="WIyWlLk6GJQsqaUBKTNV-1" source="DC-7fMDGKw9MtQms55Px-94" target="DC-7fMDGKw9MtQms55Px-87" edge="1">
          <mxGeometry relative="1" as="geometry" />
        </mxCell>
        <mxCell id="DC-7fMDGKw9MtQms55Px-94" value="CalendarTemplate" style="swimlane;fontStyle=0;childLayout=stackLayout;horizontal=1;startSize=26;fillColor=#e1d5e7;horizontalStack=0;resizeParent=1;resizeParentMax=0;resizeLast=0;collapsible=1;marginBottom=0;strokeColor=#9673a6;" parent="WIyWlLk6GJQsqaUBKTNV-1" vertex="1">
          <mxGeometry x="535" y="1680" width="310" height="52" as="geometry" />
        </mxCell>
        <mxCell id="qC0AF7DME6TW0aWiBR_m-9" style="edgeStyle=orthogonalEdgeStyle;rounded=0;orthogonalLoop=1;jettySize=auto;html=1;exitX=0.5;exitY=0;exitDx=0;exitDy=0;endArrow=block;endFill=0;" parent="WIyWlLk6GJQsqaUBKTNV-1" source="DC-7fMDGKw9MtQms55Px-100" target="DC-7fMDGKw9MtQms55Px-23" edge="1">
          <mxGeometry relative="1" as="geometry">
            <Array as="points">
              <mxPoint x="255" y="1270" />
              <mxPoint x="1750" y="1270" />
            </Array>
          </mxGeometry>
        </mxCell>
        <mxCell id="qC0AF7DME6TW0aWiBR_m-10" style="edgeStyle=orthogonalEdgeStyle;rounded=0;orthogonalLoop=1;jettySize=auto;html=1;exitX=0.75;exitY=0;exitDx=0;exitDy=0;entryX=0;entryY=0.5;entryDx=0;entryDy=0;endArrow=diamondThin;endFill=1;startArrow=open;startFill=0;" parent="WIyWlLk6GJQsqaUBKTNV-1" source="DC-7fMDGKw9MtQms55Px-100" target="DC-7fMDGKw9MtQms55Px-89" edge="1">
          <mxGeometry relative="1" as="geometry" />
        </mxCell>
        <mxCell id="DC-7fMDGKw9MtQms55Px-100" value="CalendarSpecialDate" style="swimlane;fontStyle=0;childLayout=stackLayout;horizontal=1;startSize=26;fillColor=#d5e8d4;horizontalStack=0;resizeParent=1;resizeParentMax=0;resizeLast=0;collapsible=1;marginBottom=0;strokeColor=#82b366;" parent="WIyWlLk6GJQsqaUBKTNV-1" vertex="1">
          <mxGeometry x="100" y="1810" width="310" height="338" as="geometry" />
        </mxCell>
        <mxCell id="DC-7fMDGKw9MtQms55Px-101" value="- name: String    名称" style="text;strokeColor=none;fillColor=none;align=left;verticalAlign=top;spacingLeft=4;spacingRight=4;overflow=hidden;rotatable=0;points=[[0,0.5],[1,0.5]];portConstraint=eastwest;" parent="DC-7fMDGKw9MtQms55Px-100" vertex="1">
          <mxGeometry y="26" width="310" height="26" as="geometry" />
        </mxCell>
        <mxCell id="DC-7fMDGKw9MtQms55Px-102" value="- fromTime: ZonedDateTime    开始时间" style="text;strokeColor=none;fillColor=none;align=left;verticalAlign=top;spacingLeft=4;spacingRight=4;overflow=hidden;rotatable=0;points=[[0,0.5],[1,0.5]];portConstraint=eastwest;" parent="DC-7fMDGKw9MtQms55Px-100" vertex="1">
          <mxGeometry y="52" width="310" height="26" as="geometry" />
        </mxCell>
        <mxCell id="DC-7fMDGKw9MtQms55Px-103" value="- endTime: ZonedDateTime    结束时间" style="text;strokeColor=none;fillColor=none;align=left;verticalAlign=top;spacingLeft=4;spacingRight=4;overflow=hidden;rotatable=0;points=[[0,0.5],[1,0.5]];portConstraint=eastwest;" parent="DC-7fMDGKw9MtQms55Px-100" vertex="1">
          <mxGeometry y="78" width="310" height="26" as="geometry" />
        </mxCell>
        <mxCell id="qC0AF7DME6TW0aWiBR_m-0" value="- frequency: Integer    出现次数" style="text;strokeColor=none;fillColor=none;align=left;verticalAlign=top;spacingLeft=4;spacingRight=4;overflow=hidden;rotatable=0;points=[[0,0.5],[1,0.5]];portConstraint=eastwest;" parent="DC-7fMDGKw9MtQms55Px-100" vertex="1">
          <mxGeometry y="104" width="310" height="26" as="geometry" />
        </mxCell>
        <mxCell id="qC0AF7DME6TW0aWiBR_m-2" value="- recurrenceType: RecurrenceTypeEnum   出现间隔" style="text;strokeColor=none;fillColor=none;align=left;verticalAlign=top;spacingLeft=4;spacingRight=4;overflow=hidden;rotatable=0;points=[[0,0.5],[1,0.5]];portConstraint=eastwest;" parent="DC-7fMDGKw9MtQms55Px-100" vertex="1">
          <mxGeometry y="130" width="310" height="26" as="geometry" />
        </mxCell>
        <mxCell id="qC0AF7DME6TW0aWiBR_m-1" value="- dayType: DayTypeEnum    日期类型" style="text;strokeColor=none;fillColor=none;align=left;verticalAlign=top;spacingLeft=4;spacingRight=4;overflow=hidden;rotatable=0;points=[[0,0.5],[1,0.5]];portConstraint=eastwest;" parent="DC-7fMDGKw9MtQms55Px-100" vertex="1">
          <mxGeometry y="156" width="310" height="26" as="geometry" />
        </mxCell>
        <mxCell id="qC0AF7DME6TW0aWiBR_m-7" value="- daySet: String    日历周" style="text;strokeColor=none;fillColor=none;align=left;verticalAlign=top;spacingLeft=4;spacingRight=4;overflow=hidden;rotatable=0;points=[[0,0.5],[1,0.5]];portConstraint=eastwest;" parent="DC-7fMDGKw9MtQms55Px-100" vertex="1">
          <mxGeometry y="182" width="310" height="26" as="geometry" />
        </mxCell>
        <mxCell id="qC0AF7DME6TW0aWiBR_m-6" value="- dayOrdinal: DayOrdinalEnum    每个月的第N个星期几" style="text;strokeColor=none;fillColor=none;align=left;verticalAlign=top;spacingLeft=4;spacingRight=4;overflow=hidden;rotatable=0;points=[[0,0.5],[1,0.5]];portConstraint=eastwest;" parent="DC-7fMDGKw9MtQms55Px-100" vertex="1">
          <mxGeometry y="208" width="310" height="26" as="geometry" />
        </mxCell>
        <mxCell id="qC0AF7DME6TW0aWiBR_m-5" value="- monthNumber: Integer    具体月份" style="text;strokeColor=none;fillColor=none;align=left;verticalAlign=top;spacingLeft=4;spacingRight=4;overflow=hidden;rotatable=0;points=[[0,0.5],[1,0.5]];portConstraint=eastwest;" parent="DC-7fMDGKw9MtQms55Px-100" vertex="1">
          <mxGeometry y="234" width="310" height="26" as="geometry" />
        </mxCell>
        <mxCell id="qC0AF7DME6TW0aWiBR_m-4" value="- dayNumber: Integer    具体日期" style="text;strokeColor=none;fillColor=none;align=left;verticalAlign=top;spacingLeft=4;spacingRight=4;overflow=hidden;rotatable=0;points=[[0,0.5],[1,0.5]];portConstraint=eastwest;" parent="DC-7fMDGKw9MtQms55Px-100" vertex="1">
          <mxGeometry y="260" width="310" height="26" as="geometry" />
        </mxCell>
        <mxCell id="qC0AF7DME6TW0aWiBR_m-3" value="- intervalNumber: Integer    间隔数（日间隔、周间隔）" style="text;strokeColor=none;fillColor=none;align=left;verticalAlign=top;spacingLeft=4;spacingRight=4;overflow=hidden;rotatable=0;points=[[0,0.5],[1,0.5]];portConstraint=eastwest;" parent="DC-7fMDGKw9MtQms55Px-100" vertex="1">
          <mxGeometry y="286" width="310" height="26" as="geometry" />
        </mxCell>
        <mxCell id="qC0AF7DME6TW0aWiBR_m-8" value="- calendarTimes: List&lt;CalendarTime&gt;    时间段" style="text;strokeColor=none;fillColor=none;align=left;verticalAlign=top;spacingLeft=4;spacingRight=4;overflow=hidden;rotatable=0;points=[[0,0.5],[1,0.5]];portConstraint=eastwest;" parent="DC-7fMDGKw9MtQms55Px-100" vertex="1">
          <mxGeometry y="312" width="310" height="26" as="geometry" />
        </mxCell>
        <mxCell id="DC-7fMDGKw9MtQms55Px-105" style="edgeStyle=orthogonalEdgeStyle;rounded=0;orthogonalLoop=1;jettySize=auto;html=1;exitX=0;exitY=0.5;exitDx=0;exitDy=0;entryX=1;entryY=0.5;entryDx=0;entryDy=0;startArrow=open;startFill=0;endArrow=diamondThin;endFill=1;startSize=6;endSize=6;" parent="WIyWlLk6GJQsqaUBKTNV-1" source="DC-7fMDGKw9MtQms55Px-20" target="DC-7fMDGKw9MtQms55Px-24" edge="1">
          <mxGeometry relative="1" as="geometry" />
        </mxCell>
        <mxCell id="qC0AF7DME6TW0aWiBR_m-17" style="edgeStyle=orthogonalEdgeStyle;rounded=0;orthogonalLoop=1;jettySize=auto;html=1;entryX=1;entryY=0.5;entryDx=0;entryDy=0;startArrow=open;startFill=0;endArrow=diamondThin;endFill=1;" parent="WIyWlLk6GJQsqaUBKTNV-1" source="qC0AF7DME6TW0aWiBR_m-11" target="qC0AF7DME6TW0aWiBR_m-8" edge="1">
          <mxGeometry relative="1" as="geometry">
            <Array as="points">
              <mxPoint x="450" y="2160" />
              <mxPoint x="450" y="2135" />
            </Array>
          </mxGeometry>
        </mxCell>
        <mxCell id="fS97ZJNERADpUr7Fis6X-15" style="edgeStyle=orthogonalEdgeStyle;rounded=0;orthogonalLoop=1;jettySize=auto;html=1;entryX=0;entryY=0.5;entryDx=0;entryDy=0;startArrow=open;startFill=0;endArrow=diamondThin;endFill=1;" edge="1" parent="WIyWlLk6GJQsqaUBKTNV-1" source="qC0AF7DME6TW0aWiBR_m-11">
          <mxGeometry relative="1" as="geometry">
            <mxPoint x="580" y="2217" as="sourcePoint" />
            <mxPoint x="470" y="2026" as="targetPoint" />
            <Array as="points">
              <mxPoint x="450" y="2160" />
              <mxPoint x="450" y="2026" />
            </Array>
          </mxGeometry>
        </mxCell>
        <mxCell id="qC0AF7DME6TW0aWiBR_m-11" value="CalendarTime" style="swimlane;fontStyle=0;childLayout=stackLayout;horizontal=1;startSize=26;fillColor=#dae8fc;horizontalStack=0;resizeParent=1;resizeParentMax=0;resizeLast=0;collapsible=1;marginBottom=0;strokeColor=#6c8ebf;" parent="WIyWlLk6GJQsqaUBKTNV-1" vertex="1">
          <mxGeometry x="590" y="2100" width="200" height="130" as="geometry" />
        </mxCell>
        <mxCell id="qC0AF7DME6TW0aWiBR_m-12" value="- dayStage: DayStageEnum" style="text;strokeColor=none;fillColor=none;align=left;verticalAlign=top;spacingLeft=4;spacingRight=4;overflow=hidden;rotatable=0;points=[[0,0.5],[1,0.5]];portConstraint=eastwest;" parent="qC0AF7DME6TW0aWiBR_m-11" vertex="1">
          <mxGeometry y="26" width="200" height="26" as="geometry" />
        </mxCell>
        <mxCell id="qC0AF7DME6TW0aWiBR_m-13" value="- daySet: String    日历周" style="text;strokeColor=none;fillColor=none;align=left;verticalAlign=top;spacingLeft=4;spacingRight=4;overflow=hidden;rotatable=0;points=[[0,0.5],[1,0.5]];portConstraint=eastwest;" parent="qC0AF7DME6TW0aWiBR_m-11" vertex="1">
          <mxGeometry y="52" width="200" height="26" as="geometry" />
        </mxCell>
        <mxCell id="qC0AF7DME6TW0aWiBR_m-14" value="- startTime: LocalTime    开始时间" style="text;strokeColor=none;fillColor=none;align=left;verticalAlign=top;spacingLeft=4;spacingRight=4;overflow=hidden;rotatable=0;points=[[0,0.5],[1,0.5]];portConstraint=eastwest;" parent="qC0AF7DME6TW0aWiBR_m-11" vertex="1">
          <mxGeometry y="78" width="200" height="26" as="geometry" />
        </mxCell>
        <mxCell id="qC0AF7DME6TW0aWiBR_m-15" value="- endTime: LocalTime    结束时间" style="text;strokeColor=none;fillColor=none;align=left;verticalAlign=top;spacingLeft=4;spacingRight=4;overflow=hidden;rotatable=0;points=[[0,0.5],[1,0.5]];portConstraint=eastwest;" parent="qC0AF7DME6TW0aWiBR_m-11" vertex="1">
          <mxGeometry y="104" width="200" height="26" as="geometry" />
        </mxCell>
        <mxCell id="fS97ZJNERADpUr7Fis6X-13" style="edgeStyle=orthogonalEdgeStyle;rounded=0;orthogonalLoop=1;jettySize=auto;html=1;exitX=0.5;exitY=0;exitDx=0;exitDy=0;endArrow=block;endFill=0;" edge="1" parent="WIyWlLk6GJQsqaUBKTNV-1" source="fS97ZJNERADpUr7Fis6X-0" target="DC-7fMDGKw9MtQms55Px-23">
          <mxGeometry relative="1" as="geometry">
            <Array as="points">
              <mxPoint x="625" y="1760" />
              <mxPoint x="890" y="1760" />
              <mxPoint x="890" y="1270" />
              <mxPoint x="1750" y="1270" />
            </Array>
          </mxGeometry>
        </mxCell>
        <mxCell id="fS97ZJNERADpUr7Fis6X-14" style="edgeStyle=orthogonalEdgeStyle;rounded=0;orthogonalLoop=1;jettySize=auto;html=1;exitX=0.25;exitY=0;exitDx=0;exitDy=0;entryX=0;entryY=0.5;entryDx=0;entryDy=0;endArrow=diamondThin;endFill=1;startArrow=open;startFill=0;" edge="1" parent="WIyWlLk6GJQsqaUBKTNV-1" source="fS97ZJNERADpUr7Fis6X-0" target="DC-7fMDGKw9MtQms55Px-90">
          <mxGeometry relative="1" as="geometry">
            <Array as="points">
              <mxPoint x="548" y="1750" />
              <mxPoint x="470" y="1750" />
              <mxPoint x="470" y="1620" />
            </Array>
          </mxGeometry>
        </mxCell>
        <mxCell id="fS97ZJNERADpUr7Fis6X-0" value="CalendarWeek" style="swimlane;fontStyle=0;childLayout=stackLayout;horizontal=1;startSize=26;fillColor=#d5e8d4;horizontalStack=0;resizeParent=1;resizeParentMax=0;resizeLast=0;collapsible=1;marginBottom=0;strokeColor=#82b366;" vertex="1" parent="WIyWlLk6GJQsqaUBKTNV-1">
          <mxGeometry x="470" y="1810" width="310" height="234" as="geometry" />
        </mxCell>
        <mxCell id="fS97ZJNERADpUr7Fis6X-1" value="- name: String    名称" style="text;strokeColor=none;fillColor=none;align=left;verticalAlign=top;spacingLeft=4;spacingRight=4;overflow=hidden;rotatable=0;points=[[0,0.5],[1,0.5]];portConstraint=eastwest;" vertex="1" parent="fS97ZJNERADpUr7Fis6X-0">
          <mxGeometry y="26" width="310" height="26" as="geometry" />
        </mxCell>
        <mxCell id="fS97ZJNERADpUr7Fis6X-2" value="- fromTime: ZonedDateTime    开始时间" style="text;strokeColor=none;fillColor=none;align=left;verticalAlign=top;spacingLeft=4;spacingRight=4;overflow=hidden;rotatable=0;points=[[0,0.5],[1,0.5]];portConstraint=eastwest;" vertex="1" parent="fS97ZJNERADpUr7Fis6X-0">
          <mxGeometry y="52" width="310" height="26" as="geometry" />
        </mxCell>
        <mxCell id="fS97ZJNERADpUr7Fis6X-3" value="- endTime: ZonedDateTime    结束时间" style="text;strokeColor=none;fillColor=none;align=left;verticalAlign=top;spacingLeft=4;spacingRight=4;overflow=hidden;rotatable=0;points=[[0,0.5],[1,0.5]];portConstraint=eastwest;" vertex="1" parent="fS97ZJNERADpUr7Fis6X-0">
          <mxGeometry y="78" width="310" height="26" as="geometry" />
        </mxCell>
        <mxCell id="fS97ZJNERADpUr7Fis6X-4" value="- frequency: Integer    出现次数" style="text;strokeColor=none;fillColor=none;align=left;verticalAlign=top;spacingLeft=4;spacingRight=4;overflow=hidden;rotatable=0;points=[[0,0.5],[1,0.5]];portConstraint=eastwest;" vertex="1" parent="fS97ZJNERADpUr7Fis6X-0">
          <mxGeometry y="104" width="310" height="26" as="geometry" />
        </mxCell>
        <mxCell id="fS97ZJNERADpUr7Fis6X-6" value="- dayType: DayTypeEnum    日期类型" style="text;strokeColor=none;fillColor=none;align=left;verticalAlign=top;spacingLeft=4;spacingRight=4;overflow=hidden;rotatable=0;points=[[0,0.5],[1,0.5]];portConstraint=eastwest;" vertex="1" parent="fS97ZJNERADpUr7Fis6X-0">
          <mxGeometry y="130" width="310" height="26" as="geometry" />
        </mxCell>
        <mxCell id="fS97ZJNERADpUr7Fis6X-7" value="- daySet: String    日历周" style="text;strokeColor=none;fillColor=none;align=left;verticalAlign=top;spacingLeft=4;spacingRight=4;overflow=hidden;rotatable=0;points=[[0,0.5],[1,0.5]];portConstraint=eastwest;" vertex="1" parent="fS97ZJNERADpUr7Fis6X-0">
          <mxGeometry y="156" width="310" height="26" as="geometry" />
        </mxCell>
        <mxCell id="fS97ZJNERADpUr7Fis6X-11" value="- useDefault: Boolean    默认使用" style="text;strokeColor=none;fillColor=none;align=left;verticalAlign=top;spacingLeft=4;spacingRight=4;overflow=hidden;rotatable=0;points=[[0,0.5],[1,0.5]];portConstraint=eastwest;" vertex="1" parent="fS97ZJNERADpUr7Fis6X-0">
          <mxGeometry y="182" width="310" height="26" as="geometry" />
        </mxCell>
        <mxCell id="fS97ZJNERADpUr7Fis6X-12" value="- calendarTimes: List&lt;CalendarTime&gt;    时间段" style="text;strokeColor=none;fillColor=none;align=left;verticalAlign=top;spacingLeft=4;spacingRight=4;overflow=hidden;rotatable=0;points=[[0,0.5],[1,0.5]];portConstraint=eastwest;" vertex="1" parent="fS97ZJNERADpUr7Fis6X-0">
          <mxGeometry y="208" width="310" height="26" as="geometry" />
        </mxCell>
      </root>
    </mxGraphModel>
  </diagram>
</mxfile>
